# xmcd CD database file
#
# Track frame offsets:
#	182
#	12312
#	25425
#	45605
#	65980
#	82957
#	101232
#	120622
#	133135
#	149025
#	163235
#	174815
#	195700
#	209047
#	221117
#	237435
#	254062
#	276250
#
# Disc length: 3840 seconds
#
# Revision: 0
# Processed by: cddbd v1.5.1PL2 Copyright (c) Steve Scherf et al.
# Submitted via: CDex 1.51
#
DISCID=280efe12
DTITLE=Various Artist - Blues Moods
DYEAR=1900
DGENRE=Blues
TTITLE0=John Lee Hooker - I'm in the Mood for Love
TTITLE1=Muddy Waters - Mannish Boy
TTITLE2=Big Bill Broonzy - Louise, Louise Blues
TTITLE3=Campion Jack Dupree - In the Evening
TTITLE4=Howlin Wolf - Sitting on the Top of the World
TTITLE5=Jimmy Dawkins - I onder Why You Do the Things You Do To Me
TTITLE6=Memphis Slim - The Blues is Everywhere
TTITLE7=Hubert Sumlin - Willie's Back in Town
TTITLE8=Billy Boy Arnold - Everyday I Have the Blues
TTITLE9=Buddy Guy - Broken Hearted Blues
TTITLE10=Champion Jack Dupree - Early In The Morning
TTITLE11=Jimmy Dawkins - Let Me Have My Way
TTITLE12=Memhis Slim - The Driving Wheel
TTITLE13=Hubert Sumlin - Blues For Elmore James
TTITLE14=Big Bill Broonzy - Blues in 1890
TTITLE15=Billy Boy Arnold - I Can't Loose
TTITLE16=The Aces - That's Allright
TTITLE17=Sonny Boy Williamson - Keep Your Hand Out f My Pocket
EXTD=
EXTT0=
EXTT1=
EXTT2=
EXTT3=
EXTT4=
EXTT5=
EXTT6=
EXTT7=
EXTT8=
EXTT9=
EXTT10=
EXTT11=
EXTT12=
EXTT13=
EXTT14=
EXTT15=
EXTT16=
EXTT17=
PLAYORDER=
